<?xml version="1.0" encoding="utf-8"?>
<!-- Generator: Adobe Illustrator 27.0.0, SVG Export Plug-In . SVG Version: 6.00 Build 0)  -->
<svg version="1.1" id="Capa_1" xmlns="http://www.w3.org/2000/svg" xmlns:xlink="http://www.w3.org/1999/xlink" x="0px" y="0px"
	 viewBox="0 0 186 56" style="enable-background:new 0 0 186 56;" xml:space="preserve">
<style type="text/css">
	.st0{fill:#F49B38;}
	.st1{clip-path:url(#SVGID_00000106864171306965404740000012939442188492602027_);fill:none;}
</style>
<g>
	<g>
		<g>
			<path class="st0" d="M23.3,20.6H-9.9v-5.9h33.2c1.6,0,3,1.3,3,3l0,0l0,0C26.2,19.2,24.9,20.6,23.3,20.6z"/>
		</g>
	</g>
	<g>
		<g>
			<path class="st0" d="M32.2,41.3H-6.9v-5.9h39.2c1.6,0,3,1.3,3,3l0,0l0,0C35.2,40,33.9,41.3,32.2,41.3z"/>
		</g>
	</g>
	<g>
		<g>
			<path class="st0" d="M44,30.9H7.2c-1.6,0-3-1.3-3-3l0,0l0,0c0-1.6,1.3-3,3-3H44V30.9z"/>
		</g>
	</g>
</g>
<path class="st0" d="M53.4,38.5h7.7c1.6,0,2.4-0.7,2.4-3v-2.6c0-2.8-0.9-3.6-3-3.6c0,0-7.1,0-7.1,0V25h6.8c1.8,0,2.8-0.8,2.8-3.2
	v-1.7c0-2.1-0.7-3.1-2.4-3.1h-7.3l0-4.3h7.4c4.9,0,7,2.3,7,6.9v1.1c0,3.1-0.9,5-3,6v0.1c2.5,1,3.5,3.2,3.5,6.4v2.4
	c0,4.6-2.4,7.1-7.1,7.1h-7.7L53.4,38.5z"/>
<path class="st0" d="M74,32.1l-5,10.6h5.3l5.9-11.9l4.6,11.9h4.8l-6.5-16.6l6.5-13.3h-4.7l-6.1,13h-0.1v-13h-4.7L74,32.1z"/>
<g>
	<path class="st0" d="M92,12.8h4.7v25.6h7.7v4.3H92V12.8z"/>
	<path class="st0" d="M111.1,25.4h6.5v4.3h-6.5v8.8h8.1v4.3h-12.8V12.8h12.8v4.3h-8.1V25.4z"/>
	<path class="st0" d="M137.4,42.7h-4.7l-0.8-5.4h-5.8l-0.8,5.4h-4.3l4.8-29.9h6.9L137.4,42.7z M126.7,33.2h4.5L129,18.1h-0.1
		L126.7,33.2z"/>
	<path class="st0" d="M146.6,26.1h6.6v9.5c0,4.8-2.4,7.5-7,7.5c-4.6,0-7-2.7-7-7.5V20c0-4.8,2.4-7.5,7-7.5c4.6,0,7,2.7,7,7.5v2.9
		h-4.4v-3.2c0-2.1-0.9-2.9-2.4-2.9s-2.4,0.8-2.4,2.9v16.1c0,2.1,0.9,2.9,2.4,2.9s2.4-0.8,2.4-2.9v-5.5h-2.1V26.1z"/>
	<path class="st0" d="M160.7,12.8v23.1c0,2.1,0.9,2.9,2.4,2.9s2.4-0.8,2.4-2.9V12.8h4.4v22.8c0,4.8-2.4,7.5-7,7.5s-7-2.7-7-7.5V12.8
		H160.7z"/>
	<path class="st0" d="M177.9,25.4h6.5v4.3h-6.5v8.8h8.1v4.3h-12.8V12.8H186v4.3h-8.1V25.4z"/>
</g>
<g>
	<g>
		<g>
			<g>
				<g>
					<defs>
						<circle id="SVGID_1_" cx="20.6" cy="27.3" r="20"/>
					</defs>
					<clipPath id="SVGID_00000062182866715179685130000003159201599882787726_">
						<use xlink:href="#SVGID_1_"  style="overflow:visible;"/>
					</clipPath>
					<path style="clip-path:url(#SVGID_00000062182866715179685130000003159201599882787726_);fill:none;" d="M20.6,47.3
						c11,0,20-9,20-20s-9-20-20-20s-20,8.9-20,20S9.6,47.3,20.6,47.3z"/>
				</g>
			</g>
		</g>
	</g>
</g>
</svg>
