<?xml version="1.0" encoding="utf-8"?>
<!-- Generator: Adobe Illustrator 27.0.0, SVG Export Plug-In . SVG Version: 6.00 Build 0)  -->
<svg version="1.1" id="Capa_1" xmlns="http://www.w3.org/2000/svg" xmlns:xlink="http://www.w3.org/1999/xlink" x="0px" y="0px"
	 viewBox="0 0 189.3 55" style="enable-background:new 0 0 189.3 55;" xml:space="preserve">
<style type="text/css">
	.st0{clip-path:url(#SVGID_00000016777417980998525290000016280726109470761613_);fill:none;}
	.st1{fill:#FFFFFF;}
</style>
<g>
	<g>
		<g>
			<g>
				<g>
					<g>
						<defs>
							<circle id="SVGID_1_" cx="20" cy="27" r="20"/>
						</defs>
						<clipPath id="SVGID_00000096045649254215299300000015042785685828940475_">
							<use xlink:href="#SVGID_1_"  style="overflow:visible;"/>
						</clipPath>
						<path style="clip-path:url(#SVGID_00000096045649254215299300000015042785685828940475_);fill:none;" d="M20,47
							c11,0,20-9,20-20S31,7,20,7S0,15.9,0,27S8.9,47,20,47z"/>
					</g>
				</g>
			</g>
		</g>
	</g>
	<g>
		<g>
			<path class="st1" d="M22.6,20.3h-33.2v-5.9h33.2c1.6,0,3,1.3,3,3l0,0l0,0C25.6,19,24.3,20.3,22.6,20.3z"/>
		</g>
	</g>
	<g>
		<g>
			<path class="st1" d="M31.6,41H-7.6v-5.9h39.2c1.6,0,3,1.3,3,3l0,0l0,0C34.6,39.7,33.2,41,31.6,41z"/>
		</g>
	</g>
	<g>
		<g>
			<path class="st1" d="M43.4,30.7H6.6c-1.6,0-3-1.3-3-3l0,0l0,0c0-1.6,1.3-3,3-3h36.8V30.7z"/>
		</g>
	</g>
</g>
<path class="st1" d="M52.8,38.2h7.7c1.6,0,2.4-0.7,2.4-3v-2.6c0-2.8-0.9-3.6-3-3.6c0,0-7.1,0-7.1,0v-4.3h6.8c1.8,0,2.8-0.8,2.8-3.2
	v-1.7c0-2.1-0.7-3.1-2.4-3.1h-7.3l0-4.3h7.4c4.9,0,7,2.3,7,6.9v1.1c0,3.1-0.9,5-3,6v0.1c2.5,1,3.5,3.2,3.5,6.4v2.4
	c0,4.6-2.4,7.1-7.1,7.1h-7.7L52.8,38.2z"/>
<path class="st1" d="M73.4,31.8l-5,10.6h5.3l5.9-11.9l4.6,11.9H89l-6.5-16.6L89,12.5h-4.7l-6.1,12.9h-0.1V12.5h-4.7L73.4,31.8z"/>
<g>
	<path class="st1" d="M91.3,12.5H96v25.6h7.7v4.3H91.3V12.5z"/>
	<path class="st1" d="M110.5,25.1h6.5v4.3h-6.5v8.8h8.1v4.3h-12.8V12.5h12.8v4.3h-8.1V25.1z"/>
	<path class="st1" d="M136.8,42.4H132l-0.8-5.4h-5.8l-0.8,5.4h-4.3l4.8-29.9h6.9L136.8,42.4z M126,33h4.5l-2.2-15.1h-0.1L126,33z"/>
	<path class="st1" d="M145.9,25.8h6.6v9.5c0,4.8-2.4,7.5-7,7.5c-4.6,0-7-2.7-7-7.5V19.7c0-4.8,2.4-7.5,7-7.5c4.6,0,7,2.7,7,7.5v2.9
		h-4.4v-3.2c0-2.1-0.9-2.9-2.4-2.9s-2.4,0.8-2.4,2.9v16.1c0,2.1,0.9,2.9,2.4,2.9s2.4-0.8,2.4-2.9v-5.5h-2.1V25.8z"/>
	<path class="st1" d="M160.1,12.5v23.1c0,2.1,0.9,2.9,2.4,2.9s2.4-0.8,2.4-2.9V12.5h4.4v22.8c0,4.8-2.4,7.5-7,7.5s-7-2.7-7-7.5V12.5
		H160.1z"/>
	<path class="st1" d="M177.3,25.1h6.5v4.3h-6.5v8.8h8.1v4.3h-12.8V12.5h12.8v4.3h-8.1V25.1z"/>
</g>
</svg>
